HIERARCHY
ROOT Hips
{
	OFFSET -3.958830 18.904000 13.208200
	CHANNELS 6 Xposition Yposition Zposition Zrotation Yrotation Xrotation 
	JOINT LHipJoint
	{
		OFFSET 0.000000 0.000000 0.000000
		CHANNELS 3 Zrotation Yrotation Xrotation
		JOINT LeftUpLeg
		{
			OFFSET 1.800000 -1.400000 0.085000
			CHANNELS 3 Zrotation Yrotation Xrotation
			JOINT LeftLeg
			{
				OFFSET 2.215000 -6.000000 0.000000
				CHANNELS 3 Zrotation Yrotation Xrotation
				JOINT LeftFoot
				{
					OFFSET 2.500000 -6.900000 0.000000
					CHANNELS 3 Zrotation Yrotation Xrotation
					JOINT LeftToeBase
					{
						OFFSET 0.200000 -0.500000 1.950000
						CHANNELS 3 Zrotation Yrotation Xrotation
						End Site
						{
							OFFSET 0.000000 0.000000 0.000000
						}
					}
				}
			}
		}
	}
	JOINT RHipJoint
	{
		OFFSET 0.000000 0.000000 0.000000
		CHANNELS 3 Zrotation Yrotation Xrotation
		JOINT RightUpLeg
		{
			OFFSET -1.800000 -1.400000 0.085000
			CHANNELS 3 Zrotation Yrotation Xrotation
			JOINT RightLeg
			{
				OFFSET -2.215000 -6.000000 0.000000
				CHANNELS 3 Zrotation Yrotation Xrotation
				JOINT RightFoot
				{
					OFFSET -2.500000 -6.900000 0.000000
					CHANNELS 3 Zrotation Yrotation Xrotation
					JOINT RightToeBase
					{
						OFFSET -0.200000 -0.500000 1.950000
						CHANNELS 3 Zrotation Yrotation Xrotation
						End Site
						{
							OFFSET 0.000000 0.000000 0.000000
						}
					}
				}
			}
		}
	}
	JOINT LowerBack
	{
		OFFSET 0.000000 0.000000 0.000000
		CHANNELS 3 Zrotation Yrotation Xrotation
		JOINT Spine
		{
			OFFSET -0.087000 1.940000 -0.288900
			CHANNELS 3 Zrotation Yrotation Xrotation
			JOINT Spine1
			{
				OFFSET 0.000000 1.950000 0.060000
				CHANNELS 3 Zrotation Yrotation Xrotation
				JOINT Neck
				{
					OFFSET 0.000000 0.000000 0.000000
					CHANNELS 3 Zrotation Yrotation Xrotation
					JOINT Neck1
					{
						OFFSET 0.000000 1.600000 0.340000
						CHANNELS 3 Zrotation Yrotation Xrotation
						JOINT Head
						{
							OFFSET 0.000000 1.667000 -0.240000
							CHANNELS 3 Zrotation Yrotation Xrotation
							End Site
							{
								OFFSET 0.000000 0.000000 0.000000
							}
						}
					}
				}
				JOINT LeftShoulder
				{
					OFFSET 0.000000 0.000000 0.000000
					CHANNELS 3 Zrotation Yrotation Xrotation
					JOINT LeftArm
					{
						OFFSET 2.700000 1.550000 -0.730000
						CHANNELS 3 Zrotation Yrotation Xrotation
						JOINT LeftForeArm
						{
							OFFSET 5.450000 0.000000 0.000000
							CHANNELS 3 Zrotation Yrotation Xrotation
							JOINT LeftHand
							{
								OFFSET 3.450000 0.000000 0.000000
								CHANNELS 3 Zrotation Yrotation Xrotation
								JOINT LeftHandIndex1
								{
									OFFSET 0.750000 0.000000 0.000000
									CHANNELS 3 Zrotation Yrotation Xrotation
									End Site
									{
										OFFSET 0.000000 0.000000 0.000000
									}
								}
							}
						}
					}
				}
				JOINT RightShoulder
				{
					OFFSET 0.000000 0.000000 0.000000
					CHANNELS 3 Zrotation Yrotation Xrotation
					JOINT RightArm
					{
						OFFSET -2.700000 1.550000 -0.730000
						CHANNELS 3 Zrotation Yrotation Xrotation
						JOINT RightForeArm
						{
							OFFSET -5.450000 0.000000 0.000000
							CHANNELS 3 Zrotation Yrotation Xrotation
							JOINT RightHand
							{
								OFFSET -3.450000 0.000000 0.000000
								CHANNELS 3 Zrotation Yrotation Xrotation
								JOINT RightHandIndex1
								{
									OFFSET -0.750000 0.000000 0.000000
									CHANNELS 3 Zrotation Yrotation Xrotation
									End Site
									{
										OFFSET 0.000000 0.000000 0.000000
									}
								}
							}
						}
					}
				}
			}
		}
	}
}
MOTION
Frames: 9
Frame Time: 0.016667
-0.165770 17.140630 -0.049940 -12.177014 17.835609 -40.872852 -14.602069 11.787087 2.067222 16.563063 -1.270387 19.896776 -7.454357 8.975408 15.452415 -0.495779 8.277107 1.946773 0.134040 -0.188110 -0.238630 19.162881 -10.602765 3.575461 13.646258 7.325931 -17.803173 -7.578620 -17.468807 90.327845 -3.301393 -14.323641 -0.240898 0.117640 1.004450 0.772000 -5.962263 1.551132 -7.902037 30.248142 -19.750287 31.566255 -25.051384 -12.573165 31.209981 5.873964 -5.432207 -6.833504 -11.913324 0.136325 39.622995 4.876790 -7.899170 -33.427290 10.959210 -42.882422 3.452788 23.518065 -27.451575 -20.392789 76.094994 -39.077640 -30.108946 -4.897301 2.172267 1.233120 0.226790 0.294870 0.390430 -19.321105 36.936888 3.972012 -22.774098 19.182954 -23.865931 -79.919555 43.690577 -34.342125 2.110534 -0.923699 -0.583110 0.942300 0.649970 0.072880 
-0.161250 17.135690 -0.027740 -12.557017 17.932905 -41.159142 -14.617031 11.762483 2.042617 17.073271 -1.442803 20.126515 -7.405862 9.091560 15.808516 -0.461842 8.332078 1.928399 0.139750 -0.205150 -0.217470 19.152101 -10.500982 3.678022 13.754602 7.913645 -18.953761 -7.000830 -18.986953 92.350494 -3.417612 -14.736348 -0.338173 0.092950 0.966280 0.774320 -5.920467 1.481059 -7.980059 30.672238 -20.284250 32.246227 -25.244795 -12.775466 30.237164 6.157600 -5.432871 -6.926128 -12.026324 -0.146828 39.726957 4.849530 -8.009460 -34.101640 9.825448 -41.484532 3.447037 22.132881 -26.916946 -19.350345 80.569190 -44.209883 -35.885937 -4.769549 2.092658 1.254660 0.195810 0.306950 0.388340 -18.981261 35.689426 4.181146 -21.815626 17.919608 -22.867023 -85.538941 48.165687 -40.972489 1.979171 -0.780444 -0.574630 0.904820 0.631420 0.058350 
-0.155870 17.130550 -0.007050 -13.245388 18.027636 -41.450133 -14.632776 11.736686 1.993043 17.780478 -1.676366 20.095760 -7.277037 9.218817 16.404048 -0.408559 8.375527 1.923842 0.171170 -0.191590 -0.170310 19.141544 -10.393864 3.798308 13.913835 8.613169 -20.253396 -6.498014 -20.575938 94.523853 -3.547173 -15.191412 -0.430443 0.078430 0.925680 0.784670 -5.877786 1.429549 -8.053687 31.676426 -20.986288 32.700036 -25.566632 -13.039631 29.343019 6.555086 -5.475648 -7.058930 -12.079798 -0.578167 39.172007 4.220340 -8.195080 -34.501840 8.766596 -39.827973 3.468320 20.890827 -25.834578 -18.214140 86.367143 -48.704002 -42.963368 -4.613945 1.967728 1.249230 0.176570 0.321580 0.396440 -18.970887 34.224429 4.318823 -20.899548 16.542868 -21.678265 -91.982759 51.393166 -48.667412 1.832952 -0.616605 -0.543780 0.860670 0.584890 0.051960 
-0.146060 17.121920 0.010370 -14.115001 17.803021 -41.745364 -14.635680 11.712011 1.935532 18.607712 -1.901352 19.993247 -7.085644 9.363916 17.053234 -0.348901 8.430338 1.922302 0.124690 -0.247520 -0.191790 19.141572 -10.289409 3.932780 14.193403 9.392977 -21.501673 -5.997114 -22.089416 96.368778 -3.643153 -15.613041 -0.503724 0.024900 0.922860 0.780240 -5.858183 1.400522 -8.129027 33.203600 -21.876933 33.204654 -26.034610 -13.407936 28.160316 6.813382 -5.486070 -7.649448 -12.329760 -0.706114 39.105692 3.562750 -8.243270 -33.997550 7.706520 -38.467144 3.651154 20.185547 -24.091129 -17.037492 92.775415 -52.102760 -50.607529 -4.492977 1.780250 1.234120 0.178260 0.310080 0.388970 -18.902416 33.000483 4.839928 -20.222030 14.599228 -20.257633 -99.198565 53.473005 -57.673878 1.717981 -0.407182 -0.537110 0.829970 0.584000 0.055810 
-0.136080 17.113540 0.024210 -15.114847 17.383608 -42.191473 -14.634614 11.702318 1.888116 19.623545 -2.133003 19.894805 -6.981598 9.571996 17.732038 -0.278472 8.519708 1.915406 0.043030 -0.348310 -0.234970 19.142094 -10.168495 4.074669 14.510601 10.237181 -22.555606 -5.622545 -23.613478 98.336799 -3.741960 -16.039917 -0.562706 -0.059540 0.932970 0.770070 -5.837147 1.332681 -8.212057 34.900186 -22.935773 33.985344 -26.442383 -13.876530 26.692890 6.929490 -5.449751 -8.692939 -12.841413 -0.472536 40.032385 3.156620 -8.098860 -33.371040 6.763233 -37.322760 4.046461 20.045357 -21.676744 -15.660641 99.737538 -54.395927 -59.199878 -4.389116 1.574830 1.237370 0.178780 0.296490 0.375390 -18.810889 32.026730 5.689401 -19.808651 12.598903 -18.698379 -105.786972 54.422051 -67.266433 1.671524 -0.252125 -0.545320 0.808940 0.601770 0.057550 
-0.129290 17.107560 0.036540 -15.986350 16.841375 -42.507631 -14.645638 11.728929 1.862294 20.571750 -2.320277 19.662214 -6.999960 9.803482 18.393746 -0.205809 8.615898 1.908066 -0.027960 -0.435380 -0.275880 19.127622 -10.034299 4.203524 14.811444 10.996584 -23.607069 -5.748598 -24.707041 100.443955 -3.830262 -16.428321 -0.614912 -0.133680 0.950520 0.764960 -5.772853 1.158367 -8.277143 36.162197 -23.877554 35.033361 -26.468348 -14.306254 25.238180 6.935101 -5.437709 -9.801518 -13.389766 -0.133864 40.602172 2.864020 -7.882110 -32.571640 6.032448 -35.650818 4.502517 20.414005 -19.436747 -13.832494 106.950578 -55.172698 -69.253582 -4.309087 1.526707 1.231810 0.184850 0.281790 0.369290 -18.625562 30.531000 6.722016 -20.176736 10.654200 -16.624803 -112.418159 54.226607 -79.045665 1.683541 -0.370866 -0.549200 0.790150 0.614940 0.065300 
-0.119000 17.106360 0.047680 -17.007774 16.452085 -42.837718 -14.660207 11.752991 1.824557 21.529620 -2.497534 19.262178 -6.859232 9.975413 19.056134 -0.145948 8.690050 1.902402 -0.100900 -0.527110 -0.317480 19.110704 -9.886778 4.342419 14.818685 11.884375 -24.965490 -5.574973 -26.246826 102.582281 -3.934573 -16.892799 -0.685239 -0.209360 0.966840 0.762710 -5.706565 0.970828 -8.346463 37.593927 -24.939160 35.937695 -26.501140 -14.667115 23.618587 6.963412 -5.333128 -10.973546 -13.837009 0.189179 41.480802 2.662450 -7.686490 -31.754470 5.659863 -33.833207 5.183992 21.026252 -17.148504 -11.771050 114.417341 -55.038260 -81.524727 -4.257983 1.809586 1.229900 0.190020 0.267970 0.358740 -18.821322 28.895067 7.594331 -20.358245 8.617192 -14.991859 -118.554601 54.236942 -91.722094 1.715610 -0.791787 -0.553140 0.769640 0.634180 0.071010 
-0.113030 17.110260 0.059390 -17.834599 16.316767 -43.169915 -14.681608 11.777649 1.785884 22.242748 -2.590523 18.913797 -6.628539 10.096847 19.685014 -0.091431 8.739213 1.898511 -0.160500 -0.595610 -0.352380 19.087720 -9.737164 4.474640 14.297607 12.812141 -26.515275 -5.149247 -28.191089 104.814333 -4.058067 -17.437784 -0.778967 -0.269660 0.975930 0.762590 -5.630474 0.761558 -8.414413 38.525944 -25.748392 36.852691 -26.305391 -14.878013 22.043039 6.995954 -5.227568 -11.789100 -14.102483 0.432297 42.293685 2.308020 -7.465140 -31.050590 5.811028 -32.057570 5.754190 21.414538 -14.906215 -10.360728 122.664791 -54.751462 -95.537319 -4.178853 2.415319 1.220440 0.194240 0.259280 0.347690 -19.387726 27.354955 8.085056 -19.946228 6.451274 -14.313366 -125.109145 54.598180 -103.983520 1.699631 -1.325319 -0.549370 0.747670 0.648980 0.079300 
-0.113530 17.121030 0.074280 -18.539756 16.389611 -43.540370 -14.707072 11.801503 1.734180 22.763099 -2.627516 18.616594 -6.178560 10.127187 20.279769 -0.060949 8.769911 1.902378 -0.211300 -0.656030 -0.380690 19.062129 -9.579631 4.611151 13.380496 13.800889 -28.326521 -4.551599 -30.559048 107.217732 -4.202355 -18.082995 -0.890034 -0.314460 0.992350 0.756490 -5.552001 0.538581 -8.480410 39.106815 -26.339224 37.849129 -25.849430 -14.983186 20.316734 6.900934 -5.171331 -12.138805 -14.301573 0.546933 42.810114 2.153590 -7.331920 -30.399480 6.470565 -30.455714 5.754101 21.756895 -13.011127 -9.837613 131.161788 -55.303999 -109.179608 -4.062016 2.932005 1.213110 0.202990 0.244190 0.338900 -20.107376 25.954967 8.364551 -19.284549 3.824185 -14.109778 -131.697945 55.108099 -114.562711 1.631120 -1.718930 -0.557230 0.739770 0.663490 0.083400 
